<svg xmlns="http://www.w3.org/2000/svg" xmlns:xlink="http://www.w3.org/1999/xlink" width="656" height="568" viewBox="0 0 656 568"><defs><path id="ivfza" d="M.21 1627.57l650.95 2.68-54.28 77.03-91.4 105.46-121.6 16.14-120.72 62.9-83.88 68.63-61.43-36.48-47.59-69.03-70.05-26.02z"/><path id="ivfzb" d="M177.39 1960.41l85.75-67.5 65.65-194.65-211.25 225.8z"/><path id="ivfzc" d="M328.8 1700.98l55.57 129.19-122.21 62.7z"/><path id="ivfzd" d="M597.85 1708.33l-185.96-80.25h241.87z"/><path id="ivfze" d="M74.63 1855.8l70.73-229.68-145.97 1.9z"/><path id="ivfzf" d="M142.79 1639.55l187.3 61.06-100.16 102.67z"/><path id="ivfzg" d="M411.87 1628.09l184 80.8-88.52 106.29z"/><path id="ivfzh" d="M360.27 1626v-83.6h158.8v83.6z"/><path id="ivfzi" d="M534.13 1435.7c4.88 3.19 5.57 8.46 3.66 12.8H507.4c-1.9-4.34-1.2-9.61 3.66-12.8 9.92-6.49 11.54-12.8 11.54-12.8s1.62 6.31 11.53 12.8z"/><path id="ivfzj" d="M363.81 1435.7c4.87 3.19 5.56 8.46 3.66 12.8h-30.39c-1.9-4.34-1.21-9.61 3.66-12.8 9.92-6.49 11.54-12.8 11.54-12.8s1.62 6.31 11.53 12.8z"/><path id="ivfzk" d="M352.27 1422.95c-.09.55-1.1 6.57-6.13 12.75-2.59 3.19-2.95 8.46-1.94 12.8h-7.12c-1.9-4.34-1.21-9.61 3.66-12.8 9.45-6.18 11.37-12.2 11.53-12.75z"/><path id="ivfzl" d="M352.28 1422.91l-.01.04v-.05.01z"/><path id="ivfzm" d="M452.79 1428.6c6.1 0 11.54-2.76 15.19-7.08a25.26 25.26 0 1 1-27.96-27.96 19.85 19.85 0 0 0 12.77 35.04z"/><path id="ivfzn" d="M526.06 1417.52c2.15 0 4.06-.97 5.34-2.48a8.87 8.87 0 1 1-9.82-9.83 6.96 6.96 0 0 0 4.48 12.31z"/><path id="ivfzo" d="M355.76 1417.52c2.14 0 4.05-.97 5.33-2.48a8.87 8.87 0 1 1-9.82-9.83 6.96 6.96 0 0 0 4.49 12.31z"/><path id="ivfzp" d="M459.77 1585.42V1626h-43.52v-40.58a20.7 20.7 0 0 1 20.69-20.7h2.14a20.69 20.69 0 0 1 20.69 20.7z"/><path id="ivfzq" d="M536.5 1448.5V1626h-27.8v-177.5z"/><path id="ivfzr" d="M366.17 1542.4v83.6h-27.8v-177.5h27.8z"/><path id="ivfzs" d="M348.75 1542.4v83.6h-10.37v-177.5h10.37z"/><path id="ivfzt" d="M519.07 1542.4v83.6H508.7v-177.5h10.37z"/><path id="ivfzu" d="M485.8 1542.4v83.6h-26.03v-40.58a20.69 20.69 0 0 0-20.7-20.7h-2.13a20.7 20.7 0 0 0-20.69 20.7V1626h-27.17v-100.78h.08l49.73-35.26 46.83 35.26h.08z"/><path id="ivfzv" d="M389.08 1626v-100.78h14.6V1626z"/><path id="ivfzw" d="M474.09 1484.57c15.47 10.13 17.67 26.9 11.63 40.65h-96.56c-6.04-13.75-3.85-30.52 11.63-40.65 31.5-20.62 36.65-40.66 36.65-40.66s5.15 20.04 36.65 40.66z"/><path id="ivfzx" d="M415.93 1484.57c18.44-20.56 21.5-40.55 21.5-40.65-.04.2-5.3 20.14-36.64 40.65-15.48 10.13-17.67 26.9-11.63 40.65h19.95c-3.55-13.75-2.26-30.52 6.82-40.65z"/><path id="ivfzy" d="M522.6 1500.1a4.08 4.08 0 0 1-4.08-4.08v-13.17a4.08 4.08 0 0 1 8.16 0v13.17a4.08 4.08 0 0 1-4.08 4.08z"/><path id="ivfzz" d="M522.6 1549.35a4.08 4.08 0 0 1-4.08-4.08v-13.17a4.08 4.08 0 0 1 8.16 0v13.17a4.08 4.08 0 0 1-4.08 4.08z"/><path id="ivfzA" d="M367.47 1452.57h-30.39a4.08 4.08 0 0 1 0-8.16h30.39a4.08 4.08 0 0 1 0 8.16z"/><path id="ivfzB" d="M537.8 1452.57h-30.4a4.08 4.08 0 0 1 0-8.16h30.4a4.08 4.08 0 0 1 0 8.16z"/><path id="ivfzC" d="M352.28 1500.1a4.08 4.08 0 0 1-4.09-4.08v-13.17a4.08 4.08 0 0 1 8.17 0v13.17a4.08 4.08 0 0 1-4.08 4.08z"/><path id="ivfzD" d="M352.28 1549.35a4.08 4.08 0 0 1-4.09-4.08v-13.17a4.08 4.08 0 0 1 8.17 0v13.17a4.08 4.08 0 0 1-4.08 4.08z"/><path id="ivfzE" d="M140 1609.54L-.37 1627.59H140z"/><path id="ivfzF" d="M652.5 1628.02H370.7v-18.6z"/><path id="ivfzG" d="M99.6 1626.72l144.38 45.34 167.19-44.04-39.45-17.65v17.65l-116.2 13.72-115.01-15.02z"/><path id="ivfzH" d="M384.37 1829.34l28.05-200.2 95.22 184.64z"/><path id="ivfzI" d="M140 1570.92l-141.29 37.42 1.77 20.32L140 1610.43z"/><path id="ivfzJ" d="M370.69 1563l134.15 55.44-134.15-5.17z"/><path id="ivfzK" d="M255.69 1411L140 1443.14v186.38l115.69 12.85 115.68-12.85v-186.39z"/><path id="ivfzL" d="M255.69 1411v231.37l115.68-12.85v-186.39z"/><path id="ivfzM" d="M284.31 1504.24v21.9l27.18 3.93v-21.25z"/><path id="ivfzN" d="M329.3 1511.82v20.83l21.2 3.06v-20.31z"/><path id="ivfzO" d="M255.69 1499.4V1522l10.81 1.56v-22.32z"/><path id="ivfzP" d="M367.9 1538.24l3.47.5v-19.82l-3.46-.59z"/><path id="ivfzQ" d="M140 1518.92v19.81l3.46-.5v-19.9z"/><path id="ivfzR" d="M244.87 1501.23v22.32l10.81-1.56v-22.58z"/><path id="ivfzS" d="M160.87 1515.4v20.32l21.2-3.08v-20.81z"/><path id="ivfzT" d="M199.88 1508.82v21.25l27.18-3.94v-21.9z"/><path id="ivfzU" d="M277.46 1508.25v-.27c0-2.7-.91-4.9-2.05-4.9-1.14 0-2.06 2.2-2.06 4.9v.27c-1.34 1.4-2.27 3.99-2.27 7.09 0 3.3 1.04 6.1 2.52 7.4.4 1.25 1.05 2.12 1.8 2.12.77 0 1.4-.87 1.82-2.12 1.48-1.3 2.53-4.1 2.53-7.4 0-3.1-.95-5.7-2.29-7.1"/><path id="ivfzV" d="M322.45 1515.12v-.27c0-2.7-.92-4.9-2.06-4.9-1.13 0-2.05 2.2-2.05 4.9v.27c-1.34 1.4-2.28 3.99-2.28 7.09 0 3.3 1.04 6.1 2.52 7.4.41 1.25 1.06 2.12 1.81 2.12.76 0 1.4-.87 1.82-2.12 1.47-1.3 2.52-4.1 2.52-7.4 0-3.1-.94-5.7-2.28-7.1"/><path id="ivfzW" d="M361.12 1521.74v-.25c0-2.53-.86-4.58-1.92-4.58s-1.91 2.05-1.91 4.58v.25c-1.26 1.3-2.13 3.73-2.13 6.62 0 3.08.97 5.7 2.35 6.9.39 1.18.99 2 1.7 2 .7 0 1.3-.82 1.68-2 1.4-1.2 2.36-3.82 2.36-6.9 0-2.9-.88-5.32-2.13-6.62"/><path id="ivfzX" d="M233.9 1508.25v-.27c0-2.7.93-4.9 2.06-4.9 1.14 0 2.06 2.2 2.06 4.9v.27c1.34 1.4 2.28 3.99 2.28 7.09 0 3.3-1.05 6.1-2.52 7.4-.42 1.25-1.06 2.12-1.82 2.12-.75 0-1.4-.87-1.8-2.12-1.49-1.3-2.53-4.1-2.53-7.4 0-3.1.94-5.7 2.28-7.1"/><path id="ivfzY" d="M188.92 1515.12v-.27c0-2.7.92-4.9 2.06-4.9 1.14 0 2.06 2.2 2.06 4.9v.27c1.33 1.4 2.27 3.99 2.27 7.09 0 3.3-1.04 6.1-2.52 7.4-.41 1.25-1.05 2.12-1.81 2.12s-1.4-.87-1.81-2.12c-1.48-1.3-2.53-4.1-2.53-7.4 0-3.1.94-5.7 2.28-7.1"/><path id="ivfzZ" d="M150.25 1521.74v-.25c0-2.53.86-4.58 1.92-4.58s1.92 2.05 1.92 4.58v.25c1.25 1.3 2.12 3.73 2.12 6.62 0 3.08-.97 5.7-2.35 6.9-.39 1.18-.98 2-1.69 2s-1.31-.82-1.7-2c-1.38-1.2-2.35-3.82-2.35-6.9 0-2.9.88-5.32 2.13-6.62"/><path id="ivfzaa" d="M140 1482.63v22.5l115.69-21v-24.2z"/><path id="ivfzab" d="M255.69 1459.94v24.18l115.68 21v-22.49z"/></defs><g><g transform="translate(2 -1393)"><g><use fill="#fce2a8" xlink:href="#ivfza"/></g><g><use fill="#f7d78e" xlink:href="#ivfzb"/></g><g><use fill="#fdefce" xlink:href="#ivfzc"/></g><g><use fill="#fdefce" xlink:href="#ivfzd"/></g><g><use fill="#f7d78e" xlink:href="#ivfze"/></g><g><use fill="#fdefce" xlink:href="#ivfzf"/></g><g><use fill="#f7d78e" xlink:href="#ivfzg"/></g><g opacity=".67"><g opacity=".67"><use fill="#ccc" xlink:href="#ivfzh"/></g><g opacity=".67"><g opacity=".67"><use fill="#e6e6e6" xlink:href="#ivfzi"/></g><g opacity=".67"><use fill="#e6e6e6" xlink:href="#ivfzj"/></g></g><g opacity=".67"><g opacity=".67"><use fill="#ccc" xlink:href="#ivfzk"/></g><g opacity=".67"><use fill="#ccc" xlink:href="#ivfzl"/></g></g><g opacity=".67"><g opacity=".67"><use fill="#f7b239" xlink:href="#ivfzm"/></g><g opacity=".67"><use fill="#f7b239" xlink:href="#ivfzn"/></g><g opacity=".67"><use fill="#f7b239" xlink:href="#ivfzo"/></g></g><g opacity=".67"><use fill="#999" xlink:href="#ivfzp"/></g><g opacity=".67"><g opacity=".67"><use fill="#e6e6e6" xlink:href="#ivfzq"/></g><g opacity=".67"><use fill="#e6e6e6" xlink:href="#ivfzr"/></g></g><g opacity=".67"><g opacity=".67"><use fill="#ccc" xlink:href="#ivfzs"/></g><g opacity=".67"><use fill="#ccc" xlink:href="#ivfzt"/></g></g><g opacity=".67"><use fill="#f2f2f2" xlink:href="#ivfzu"/></g><g opacity=".67"><g opacity=".67"><use fill="#e6e6e6" xlink:href="#ivfzv"/></g><g opacity=".67"><use fill="#e6e6e6" xlink:href="#ivfzw"/></g></g><g opacity=".67"><use fill="#ccc" xlink:href="#ivfzx"/></g><g opacity=".67"><g opacity=".67"><use fill="gray" xlink:href="#ivfzy"/></g><g opacity=".67"><use fill="gray" xlink:href="#ivfzz"/></g></g><g opacity=".67"><g opacity=".67"><use fill="#ccc" xlink:href="#ivfzA"/></g><g opacity=".67"><use fill="#ccc" xlink:href="#ivfzB"/></g></g><g opacity=".67"><g opacity=".67"><use fill="gray" xlink:href="#ivfzC"/></g><g opacity=".67"><use fill="gray" xlink:href="#ivfzD"/></g></g></g><g><use fill="#e3c379" xlink:href="#ivfzE"/></g><g><use fill="#e3c379" xlink:href="#ivfzF"/></g><g><use fill="#e3c379" xlink:href="#ivfzG"/></g><g><use fill="#fdefce" xlink:href="#ivfzH"/></g><g><use fill="#e3c379" xlink:href="#ivfzI"/></g><g><use fill="#e3c379" xlink:href="#ivfzJ"/></g><g><g><g><use xlink:href="#ivfzK"/></g><g><use fill="#292f33" xlink:href="#ivfzL"/></g></g><g><g><use fill="#ffd983" xlink:href="#ivfzM"/></g><g><use fill="#ffd983" xlink:href="#ivfzN"/></g><g><use fill="#ffd983" xlink:href="#ivfzO"/></g><g><use fill="#ffd983" xlink:href="#ivfzP"/></g></g><g><g><use fill="#ffac33" xlink:href="#ivfzQ"/></g><g><use fill="#ffac33" xlink:href="#ivfzR"/></g><g><use fill="#ffac33" xlink:href="#ivfzS"/></g><g><use fill="#ffac33" xlink:href="#ivfzT"/></g></g><g><g><g><use fill="#ffd983" xlink:href="#ivfzU"/></g><g><use fill="#ffd983" xlink:href="#ivfzV"/></g><g><use fill="#ffd983" xlink:href="#ivfzW"/></g></g><g><g><use fill="#ffac33" xlink:href="#ivfzX"/></g><g><use fill="#ffac33" xlink:href="#ivfzY"/></g><g><use fill="#ffac33" xlink:href="#ivfzZ"/></g><g><use fill="#ffac33" xlink:href="#ivfzaa"/></g></g><g><use fill="#ffd983" xlink:href="#ivfzab"/></g></g></g></g></g></svg>